<svg xmlns="http://www.w3.org/2000/svg" xmlns:xlink="http://www.w3.org/1999/xlink" width="500" zoomAndPan="magnify" viewBox="0 0 375 374.999991" height="500" preserveAspectRatio="xMidYMid meet" version="1.0"><defs><g/><clipPath id="5cecc771f8"><path d="M 54.964844 54.964844 L 320.035156 54.964844 L 320.035156 320.035156 L 54.964844 320.035156 Z M 54.964844 54.964844 " clip-rule="nonzero"/></clipPath><clipPath id="078f518a14"><path d="M 187.5 54.964844 C 114.300781 54.964844 54.964844 114.300781 54.964844 187.5 C 54.964844 260.699219 114.300781 320.035156 187.5 320.035156 C 260.699219 320.035156 320.035156 260.699219 320.035156 187.5 C 320.035156 114.300781 260.699219 54.964844 187.5 54.964844 Z M 187.5 54.964844 " clip-rule="nonzero"/></clipPath><clipPath id="1b68c496c2"><path d="M 170 97.394531 L 205 97.394531 L 205 144 L 170 144 Z M 170 97.394531 " clip-rule="nonzero"/></clipPath><clipPath id="7ac9cf15f5"><path d="M 85 142 L 290 142 L 290 224.894531 L 85 224.894531 Z M 85 142 " clip-rule="nonzero"/></clipPath><clipPath id="f88655b9f0"><path d="M 125.117188 191.316406 L 245.636719 191.316406 L 245.636719 249.886719 L 125.117188 249.886719 Z M 125.117188 191.316406 " clip-rule="nonzero"/></clipPath></defs><rect x="-37.5" width="450" fill="#ffffff" y="-37.499999" height="449.999989" fill-opacity="1"/><rect x="-37.5" width="450" fill="#ffffff" y="-37.499999" height="449.999989" fill-opacity="1"/><g clip-path="url(#5cecc771f8)"><g clip-path="url(#078f518a14)"><path fill="#000000" d="M 54.964844 54.964844 L 320.035156 54.964844 L 320.035156 320.035156 L 54.964844 320.035156 Z M 54.964844 54.964844 " fill-opacity="1" fill-rule="nonzero"/></g></g><g clip-path="url(#1b68c496c2)"><path fill="#ffffff" d="M 188.777344 143.460938 L 185.914062 143.460938 L 185.914062 130.988281 L 186.730469 130.578125 C 186.730469 130.578125 189.082031 129.558594 195.730469 124.855469 C 198.589844 122.808594 201.25 117.699219 201.25 114.015625 C 201.25 110.335938 199.820312 106.859375 197.160156 104.203125 C 194.503906 101.542969 191.027344 100.113281 187.347656 100.113281 C 179.679688 100.113281 173.441406 106.351562 173.441406 114.015625 L 170.578125 114.015625 C 170.679688 104.917969 178.144531 97.457031 187.449219 97.457031 C 191.945312 97.457031 196.136719 99.195312 199.308594 102.363281 C 202.476562 105.53125 204.214844 109.722656 204.214844 114.222656 C 204.214844 118.824219 201.148438 124.753906 197.46875 127.308594 C 192.660156 130.683594 190.105469 132.214844 188.878906 132.828125 Z M 188.777344 143.460938 " fill-opacity="1" fill-rule="nonzero"/></g><g clip-path="url(#7ac9cf15f5)"><path fill="#ffffff" d="M 279.152344 225.046875 L 95.640625 224.738281 C 90.835938 224.738281 86.949219 221.773438 85.621094 217.171875 C 84.292969 212.574219 86.03125 207.972656 90.015625 205.417969 L 186.835938 143.050781 C 187.347656 142.746094 187.855469 142.746094 188.367188 143.050781 L 284.980469 205.824219 C 288.96875 208.382812 290.707031 213.085938 289.378906 217.683594 C 287.84375 222.082031 283.957031 225.046875 279.152344 225.046875 Z M 187.449219 145.8125 L 91.449219 207.769531 C 87.871094 210.015625 87.460938 213.800781 88.28125 216.355469 C 88.996094 218.910156 91.449219 221.875 95.640625 221.875 L 279.152344 222.183594 C 283.34375 222.183594 285.800781 219.21875 286.515625 216.664062 C 287.230469 214.105469 286.921875 210.324219 283.34375 208.074219 Z M 187.449219 145.8125 " fill-opacity="1" fill-rule="nonzero"/></g><path fill="#ffffff" d="M 185.8125 140.191406 C 185.300781 140.191406 184.890625 139.984375 184.585938 139.472656 C 184.175781 138.757812 184.382812 137.941406 185.097656 137.53125 L 188.164062 135.589844 C 188.878906 135.179688 189.695312 135.386719 190.105469 136.101562 C 190.515625 136.816406 190.3125 137.632812 189.59375 138.042969 L 186.527344 139.984375 C 186.324219 140.085938 186.117188 140.191406 185.8125 140.191406 Z M 185.8125 140.191406 " fill-opacity="1" fill-rule="nonzero"/><path fill="#ffffff" d="M 185.8125 144.585938 C 185.300781 144.585938 184.890625 144.382812 184.585938 143.871094 C 184.175781 143.15625 184.382812 142.335938 185.097656 141.929688 L 188.164062 139.984375 C 188.878906 139.578125 189.695312 139.78125 190.105469 140.496094 C 190.515625 141.210938 190.3125 142.03125 189.59375 142.4375 L 186.527344 144.382812 C 186.324219 144.585938 186.117188 144.585938 185.8125 144.585938 Z M 185.8125 144.585938 " fill-opacity="1" fill-rule="nonzero"/><path fill="#ffffff" d="M 185.8125 135.691406 C 185.300781 135.691406 184.890625 135.488281 184.585938 134.976562 C 184.175781 134.261719 184.382812 133.441406 185.097656 133.035156 L 188.164062 131.089844 C 188.878906 130.683594 189.695312 130.886719 190.105469 131.601562 C 190.515625 132.316406 190.3125 133.136719 189.59375 133.542969 L 186.527344 135.488281 C 186.324219 135.589844 186.117188 135.691406 185.8125 135.691406 Z M 185.8125 135.691406 " fill-opacity="1" fill-rule="nonzero"/><g clip-path="url(#f88655b9f0)"><path fill="#000000" d="M 125.117188 191.316406 L 245.683594 191.316406 L 245.683594 249.886719 L 125.117188 249.886719 Z M 125.117188 191.316406 " fill-opacity="1" fill-rule="nonzero"/></g><g fill="#ffffff" fill-opacity="1"><g transform="translate(123.909342, 223.817945)"><g><path d="M 13.75 0.25 C 11.488281 0.25 9.425781 -0.28125 7.5625 -1.34375 C 5.695312 -2.40625 4.21875 -3.882812 3.125 -5.78125 C 2.039062 -7.6875 1.5 -9.832031 1.5 -12.21875 C 1.5 -14.59375 2.039062 -16.726562 3.125 -18.625 C 4.21875 -20.53125 5.695312 -22.015625 7.5625 -23.078125 C 9.425781 -24.140625 11.488281 -24.671875 13.75 -24.671875 C 16.039062 -24.671875 18.117188 -24.140625 19.984375 -23.078125 C 21.847656 -22.015625 23.316406 -20.535156 24.390625 -18.640625 C 25.460938 -16.753906 26 -14.613281 26 -12.21875 C 26 -9.8125 25.460938 -7.660156 24.390625 -5.765625 C 23.316406 -3.878906 21.847656 -2.40625 19.984375 -1.34375 C 18.117188 -0.28125 16.039062 0.25 13.75 0.25 Z M 13.75 -2.515625 C 15.457031 -2.515625 16.992188 -2.910156 18.359375 -3.703125 C 19.722656 -4.503906 20.796875 -5.640625 21.578125 -7.109375 C 22.359375 -8.578125 22.75 -10.28125 22.75 -12.21875 C 22.75 -14.175781 22.359375 -15.882812 21.578125 -17.34375 C 20.796875 -18.800781 19.726562 -19.925781 18.375 -20.71875 C 17.019531 -21.507812 15.476562 -21.90625 13.75 -21.90625 C 12.03125 -21.90625 10.492188 -21.507812 9.140625 -20.71875 C 7.785156 -19.925781 6.71875 -18.800781 5.9375 -17.34375 C 5.15625 -15.882812 4.765625 -14.175781 4.765625 -12.21875 C 4.765625 -10.28125 5.15625 -8.578125 5.9375 -7.109375 C 6.71875 -5.640625 7.789062 -4.503906 9.15625 -3.703125 C 10.519531 -2.910156 12.050781 -2.515625 13.75 -2.515625 Z M 13.75 -2.515625 "/></g></g></g><g fill="#ffffff" fill-opacity="1"><g transform="translate(179.413149, 223.817945)"><g><path d="M 17.703125 -24.390625 L 17.703125 -21.8125 L 11.0625 -21.8125 L 11.0625 0 L 7.875 0 L 7.875 -21.8125 L 1.1875 -21.8125 L 1.1875 -24.390625 Z M 17.703125 -24.390625 "/></g></g></g><g fill="#ffffff" fill-opacity="1"><g transform="translate(226.343891, 223.817945)"><g><path d="M 10.296875 -24.390625 C 12.953125 -24.390625 15.253906 -23.894531 17.203125 -22.90625 C 19.148438 -21.914062 20.640625 -20.5 21.671875 -18.65625 C 22.710938 -16.8125 23.234375 -14.640625 23.234375 -12.140625 C 23.234375 -9.648438 22.710938 -7.488281 21.671875 -5.65625 C 20.640625 -3.820312 19.148438 -2.421875 17.203125 -1.453125 C 15.253906 -0.484375 12.953125 0 10.296875 0 L 2.6875 0 L 2.6875 -24.390625 Z M 10.296875 -2.625 C 13.441406 -2.625 15.84375 -3.457031 17.5 -5.125 C 19.15625 -6.789062 19.984375 -9.128906 19.984375 -12.140625 C 19.984375 -15.171875 19.148438 -17.539062 17.484375 -19.25 C 15.816406 -20.957031 13.421875 -21.8125 10.296875 -21.8125 L 5.875 -21.8125 L 5.875 -2.625 Z M 10.296875 -2.625 "/></g></g></g><g fill="#ffffff" fill-opacity="1"><g transform="translate(141.987893, 255.510408)"><g><path d="M 1.890625 -12.59375 L 6.75 -12.59375 C 7.269531 -12.59375 7.742188 -12.507812 8.171875 -12.34375 C 8.597656 -12.175781 8.960938 -11.945312 9.265625 -11.65625 C 9.578125 -11.363281 9.820312 -11.019531 10 -10.625 C 10.175781 -10.226562 10.265625 -9.804688 10.265625 -9.359375 C 10.265625 -8.859375 10.1875 -8.441406 10.03125 -8.109375 C 9.882812 -7.773438 9.722656 -7.507812 9.546875 -7.3125 C 9.328125 -7.070312 9.082031 -6.882812 8.8125 -6.75 C 9.1875 -6.570312 9.53125 -6.335938 9.84375 -6.046875 C 10.101562 -5.796875 10.34375 -5.472656 10.5625 -5.078125 C 10.78125 -4.679688 10.890625 -4.1875 10.890625 -3.59375 C 10.890625 -3.082031 10.796875 -2.609375 10.609375 -2.171875 C 10.421875 -1.734375 10.160156 -1.351562 9.828125 -1.03125 C 9.492188 -0.707031 9.085938 -0.453125 8.609375 -0.265625 C 8.140625 -0.0859375 7.609375 0 7.015625 0 L 1.890625 0 Z M 7.015625 -1.265625 C 7.785156 -1.265625 8.398438 -1.484375 8.859375 -1.921875 C 9.316406 -2.359375 9.546875 -2.914062 9.546875 -3.59375 C 9.546875 -3.9375 9.484375 -4.257812 9.359375 -4.5625 C 9.242188 -4.863281 9.078125 -5.128906 8.859375 -5.359375 C 8.640625 -5.585938 8.375 -5.769531 8.0625 -5.90625 C 7.75 -6.050781 7.398438 -6.125 7.015625 -6.125 L 3.234375 -6.125 L 3.234375 -1.265625 Z M 6.75 -7.3125 C 7.4375 -7.3125 7.96875 -7.492188 8.34375 -7.859375 C 8.71875 -8.222656 8.90625 -8.722656 8.90625 -9.359375 C 8.90625 -9.941406 8.71875 -10.414062 8.34375 -10.78125 C 7.96875 -11.15625 7.4375 -11.34375 6.75 -11.34375 L 3.234375 -11.34375 L 3.234375 -7.3125 Z M 6.75 -7.3125 "/></g></g></g><g fill="#ffffff" fill-opacity="1"><g transform="translate(161.769851, 255.510408)"><g><path d="M 5.578125 -12.59375 L 6.84375 -12.59375 L 12.0625 0 L 10.625 0 L 9.1875 -3.515625 L 3.234375 -3.515625 L 1.796875 0 L 0.359375 0 Z M 8.640625 -4.765625 L 6.203125 -10.703125 L 3.78125 -4.765625 Z M 8.640625 -4.765625 "/></g></g></g><g fill="#ffffff" fill-opacity="1"><g transform="translate(182.001814, 255.510408)"><g><path d="M 0.8125 -1.265625 L 8.1875 -11.34375 L 1.078125 -11.34375 L 1.078125 -12.59375 L 9.8125 -12.59375 L 9.8125 -11.34375 L 2.4375 -1.265625 L 9.984375 -1.265625 L 9.984375 0 L 0.8125 0 Z M 0.8125 -1.265625 "/></g></g></g><g fill="#ffffff" fill-opacity="1"><g transform="translate(200.613785, 255.510408)"><g><path d="M 5.578125 -12.59375 L 6.84375 -12.59375 L 12.0625 0 L 10.625 0 L 9.1875 -3.515625 L 3.234375 -3.515625 L 1.796875 0 L 0.359375 0 Z M 8.640625 -4.765625 L 6.203125 -10.703125 L 3.78125 -4.765625 Z M 8.640625 -4.765625 "/></g></g></g><g fill="#ffffff" fill-opacity="1"><g transform="translate(220.845748, 255.510408)"><g><path d="M 1.890625 -12.59375 L 6.9375 -12.59375 C 7.5 -12.59375 8.015625 -12.5 8.484375 -12.3125 C 8.960938 -12.125 9.367188 -11.859375 9.703125 -11.515625 C 10.046875 -11.179688 10.3125 -10.78125 10.5 -10.3125 C 10.695312 -9.851562 10.796875 -9.351562 10.796875 -8.8125 C 10.796875 -8.09375 10.65625 -7.503906 10.375 -7.046875 C 10.101562 -6.585938 9.804688 -6.21875 9.484375 -5.9375 C 9.097656 -5.625 8.664062 -5.382812 8.1875 -5.21875 L 11.15625 0 L 9.625 0 L 6.84375 -5.046875 L 3.234375 -5.046875 L 3.234375 0 L 1.890625 0 Z M 6.9375 -6.296875 C 7.695312 -6.296875 8.304688 -6.523438 8.765625 -6.984375 C 9.222656 -7.441406 9.453125 -8.050781 9.453125 -8.8125 C 9.453125 -9.582031 9.222656 -10.195312 8.765625 -10.65625 C 8.304688 -11.113281 7.695312 -11.34375 6.9375 -11.34375 L 3.234375 -11.34375 L 3.234375 -6.296875 Z M 6.9375 -6.296875 "/></g></g></g></svg>